<svg width="16" height="16" viewBox="0 0 369 458" fill="none" xmlns="http://www.w3.org/2000/svg">
    <path fill-rule="evenodd" clip-rule="evenodd"
        d="M164.907 249.753C166.842 249.297 168.879 249.628 170.57 250.674C171.405 251.194 172.13 251.873 172.703 252.673C173.276 253.473 173.685 254.378 173.908 255.337C174.131 256.295 174.163 257.288 174.002 258.259C173.841 259.229 173.49 260.159 172.97 260.994L117.97 350.054L166.11 398.204C167.517 399.611 168.308 401.519 168.308 403.509C168.308 405.499 167.517 407.407 166.11 408.814C164.703 410.221 162.795 411.011 160.805 411.011C158.815 411.011 156.907 410.221 155.5 408.814L0 253.304L154.43 3.43382C155.495 1.78404 157.164 0.61741 159.079 0.184549C160.994 -0.248312 163.002 0.0871369 164.673 1.11875C166.343 2.15037 167.543 3.796 168.014 5.70225C168.484 7.60838 168.188 9.62315 167.19 11.3138L19 251.094L107.07 339.164L160.25 253.104C161.297 251.414 162.972 250.208 164.907 249.753ZM207.565 46.6764C209.555 46.6764 211.463 47.4668 212.87 48.8738L368.35 204.334L213.94 454.204C213.433 455.063 212.759 455.812 211.959 456.407C211.159 457.002 210.248 457.432 209.28 457.671C208.312 457.91 207.305 457.954 206.32 457.799C205.334 457.645 204.39 457.295 203.542 456.771C202.693 456.247 201.957 455.559 201.377 454.747C200.798 453.935 200.387 453.016 200.167 452.043C199.947 451.071 199.923 450.064 200.097 449.081C200.271 448.099 200.639 447.162 201.18 446.324L349.36 206.544L261.16 118.344L208.35 203.794C207.83 204.631 207.15 205.358 206.349 205.932C205.548 206.506 204.643 206.917 203.683 207.142C202.723 207.366 201.729 207.399 200.756 207.239C199.784 207.079 198.852 206.729 198.015 206.209C197.178 205.689 196.451 205.009 195.877 204.208C195.302 203.407 194.891 202.501 194.667 201.541C194.443 200.582 194.41 199.587 194.57 198.615C194.73 197.642 195.08 196.711 195.6 195.874L250.26 107.484L202.26 59.4837C200.853 58.0768 200.062 56.1686 200.062 54.1788C200.062 52.1891 200.853 50.2807 202.26 48.8738C203.667 47.4668 205.575 46.6764 207.565 46.6764Z"
        fill="black" />
</svg>