<svg width="inherit" height="inherit" viewBox="0 0 131 87" fill="none" xmlns="http://www.w3.org/2000/svg">
    <rect width="131" height="87" rx="10" fill="var(--color-secondary)" />
    <rect x="52.7219" y="52.7218" width="35" height="7" rx="3.5" fill="var(--color-primary)" />
    <path fill-rule="evenodd" clip-rule="evenodd"
        d="M24.339 15.0876C22.8888 13.6375 20.5377 13.6375 19.0876 15.0876C17.6375 16.5377 17.6375 18.8888 19.0876 20.339L35.4619 36.7133L19.0877 53.0875C17.6375 54.5376 17.6375 56.8887 19.0877 58.3388C20.5378 59.789 22.8889 59.789 24.339 58.3389L42.6333 40.0446C42.9203 39.8826 43.1904 39.6793 43.4349 39.4349C44.184 38.6857 44.5461 37.6961 44.5212 36.7145C44.5468 35.732 44.1847 34.7414 43.4349 33.9916C43.1904 33.747 42.9202 33.5437 42.633 33.3817L24.339 15.0876Z"
        fill="var(--color-primary)" />
</svg>